<?xml version="1.0" encoding="UTF-8" standalone="no"?>
<svg
   xmlns:dc="http://purl.org/dc/elements/1.1/"
   xmlns:cc="http://creativecommons.org/ns#"
   xmlns:rdf="http://www.w3.org/1999/02/22-rdf-syntax-ns#"
   xmlns:svg="http://www.w3.org/2000/svg"
   xmlns="http://www.w3.org/2000/svg"
   xmlns:sodipodi="http://sodipodi.sourceforge.net/DTD/sodipodi-0.dtd"
   xmlns:inkscape="http://www.inkscape.org/namespaces/inkscape"
   sodipodi:docname="icon_quit.svg"
   inkscape:version="1.0 (1.0+r73+1)"
   id="svg8"
   version="1.1"
   viewBox="0 0 48 48.000068"
   height="48.000069mm"
   width="48mm">
  <defs
     id="defs2" />
  <sodipodi:namedview
     fit-margin-bottom="0"
     fit-margin-right="0"
     fit-margin-left="0"
     fit-margin-top="0"
     showgrid="false"
     inkscape:document-rotation="0"
     inkscape:current-layer="layer1"
     inkscape:document-units="mm"
     inkscape:cy="394.86579"
     inkscape:cx="637.67122"
     inkscape:zoom="0.5"
     inkscape:pageshadow="2"
     inkscape:pageopacity="0.0"
     borderopacity="1.0"
     bordercolor="#666666"
     pagecolor="#ffffff"
     id="base" />
  <metadata
     id="metadata5">
    <rdf:RDF>
      <cc:Work
         rdf:about="">
        <dc:format>image/svg+xml</dc:format>
        <dc:type
           rdf:resource="http://purl.org/dc/dcmitype/StillImage" />
        <dc:title></dc:title>
      </cc:Work>
    </rdf:RDF>
  </metadata>
  <g
     transform="translate(-21.364071,-1.1953124)"
     id="layer1"
     inkscape:groupmode="layer"
     inkscape:label="Calque 1">
    <path
       id="path885"
       d="M 25.105136,48.968949 C 23.303453,48.402548 21.919871,46.896336 21.527787,45.07456 21.381483,44.394428 21.337803,38.401887 21.378603,24.613293 21.437163,5.1917108 21.439083,5.1104419 21.832203,4.2574903 22.337452,3.1646708 23.404551,2.0968699 24.496726,1.591409 25.352375,1.1954468 25.359287,1.1953124 45.400228,1.1953124 c 20.040854,0 20.04792,1.344e-4 20.903492,0.3960966 1.092175,0.5054599 2.159389,1.5732618 2.664542,2.6660813 0.395712,0.8560812 0.395808,0.8631468 0.395808,20.9155947 0,20.05245 -1.34e-4,20.059516 -0.395808,20.915597 -0.505249,1.092818 -1.572367,2.160619 -2.664542,2.666082 -0.853633,0.395108 -0.905185,0.396183 -20.623748,0.431972 -16.218945,0.02938 -19.912752,-0.0097 -20.574778,-0.217786 z m 10.556943,-10.64754 c 0.453793,-0.187594 2.255994,-1.847397 5.21395,-4.801688 l 4.520618,-4.514996 4.617376,4.592841 c 5.01282,4.986187 5.325896,5.210866 6.732845,4.831798 0.861121,-0.232003 1.797996,-1.1981 1.984131,-2.045925 0.274752,-1.251362 -0.0912,-1.7419 -4.909457,-6.592066 l -4.588432,-4.618288 4.588432,-4.618287 c 4.818804,-4.850164 5.184123,-5.340703 4.909457,-6.592065 -0.173309,-0.78952 -1.093307,-1.784319 -1.894966,-2.049041 -1.401266,-0.462728 -1.769033,-0.202399 -6.820224,4.8278 l -4.615639,4.596428 -4.6156,-4.596428 c -5.051211,-5.030197 -5.418987,-5.290531 -6.820263,-4.8278 -0.801697,0.264721 -1.721628,1.259525 -1.894947,2.049041 -0.274752,1.251362 0.0912,1.741901 4.909448,6.592065 l 4.588422,4.618287 -4.588422,4.618288 c -4.811969,4.843305 -5.183902,5.341761 -4.911502,6.582677 0.233472,1.063945 1.54925,2.204337 2.569089,2.226748 0.182784,0.004 0.644448,-0.1217 1.025684,-0.279389 z"
       style="fill:#000000;stroke-width:0.186545" />
  </g>
</svg>
